<svg width="178" height="45" viewBox="0 0 178 45" fill="none" xmlns="http://www.w3.org/2000/svg">
<path d="M68.45 30.0705L68.4311 22.1615L64.552 28.677H63.1773L59.317 22.331V30.0705H56.4547V16.8889H58.978L63.9117 25.0803L68.7701 16.8889H71.2746L71.3123 30.0705H68.45Z" fill="#3A3A3C"/>
<path d="M84.1564 25.0427C84.1564 25.0803 84.1375 25.344 84.0999 25.8336H76.4357C76.5738 26.4613 76.9002 26.9571 77.4149 27.3212C77.9296 27.6853 78.5699 27.8673 79.3357 27.8673C79.8629 27.8673 80.3274 27.792 80.7291 27.6413C81.1434 27.4781 81.5263 27.227 81.8778 26.8881L83.4408 28.5829C82.4867 29.6751 81.0932 30.2212 79.2603 30.2212C78.1179 30.2212 77.1073 30.0015 76.2286 29.5621C75.3498 29.1101 74.6719 28.4887 74.1948 27.6978C73.7178 26.9069 73.4793 26.0093 73.4793 25.005C73.4793 24.0132 73.7115 23.1219 74.176 22.331C74.6531 21.5276 75.2996 20.9062 76.1156 20.4668C76.9441 20.0148 77.8669 19.7889 78.8837 19.7889C79.8755 19.7889 80.7731 20.0023 81.5765 20.4291C82.38 20.8559 83.0077 21.4711 83.4596 22.2745C83.9241 23.0654 84.1564 23.9881 84.1564 25.0427ZM78.9026 22.0109C78.2372 22.0109 77.6785 22.1992 77.2266 22.5758C76.7747 22.9524 76.4985 23.4672 76.398 24.12H81.3882C81.2878 23.4797 81.0116 22.9713 80.5597 22.5947C80.1077 22.2055 79.5554 22.0109 78.9026 22.0109Z" fill="#3A3A3C"/>
<path d="M88.9179 21.2765C89.2694 20.7869 89.7402 20.4166 90.3302 20.1655C90.9328 19.9144 91.6233 19.7889 92.4016 19.7889V22.5005C92.0752 22.4754 91.8555 22.4628 91.7425 22.4628C90.9014 22.4628 90.2424 22.7014 89.7653 23.1784C89.2883 23.6429 89.0497 24.3459 89.0497 25.2875V30.0705H86.1121V19.9395H88.9179V21.2765Z" fill="#3A3A3C"/>
<path d="M98.9524 30.2212C97.8728 30.2212 96.8998 30.0015 96.0336 29.5621C95.18 29.1101 94.5083 28.4887 94.0187 27.6978C93.5417 26.9069 93.3031 26.0093 93.3031 25.005C93.3031 24.0007 93.5417 23.1031 94.0187 22.3122C94.5083 21.5213 95.18 20.9062 96.0336 20.4668C96.8998 20.0148 97.8728 19.7889 98.9524 19.7889C100.019 19.7889 100.948 20.0148 101.739 20.4668C102.543 20.9062 103.127 21.5401 103.491 22.3687L101.212 23.5927C100.685 22.6637 99.9253 22.1992 98.9336 22.1992C98.1678 22.1992 97.5338 22.4503 97.0317 22.9524C96.5295 23.4546 96.2784 24.1388 96.2784 25.005C96.2784 25.8712 96.5295 26.5554 97.0317 27.0576C97.5338 27.5597 98.1678 27.8108 98.9336 27.8108C99.9379 27.8108 100.697 27.3463 101.212 26.4173L103.491 27.6602C103.127 28.4636 102.543 29.0913 101.739 29.5432C100.948 29.9952 100.019 30.2212 98.9524 30.2212Z" fill="#3A3A3C"/>
<path d="M111.266 19.7889C112.522 19.7889 113.532 20.1655 114.298 20.9187C115.076 21.6719 115.465 22.7892 115.465 24.2706V30.0705H112.528V24.7225C112.528 23.9191 112.352 23.3228 112.001 22.9336C111.649 22.5319 111.141 22.331 110.475 22.331C109.735 22.331 109.145 22.5633 108.705 23.0278C108.266 23.4797 108.046 24.1576 108.046 25.0615V30.0705H105.108V16.098H108.046V20.994C108.435 20.6049 108.906 20.3098 109.458 20.109C110.011 19.8956 110.613 19.7889 111.266 19.7889Z" fill="#3A3A3C"/>
<path d="M131.103 19.7889C132.371 19.7889 133.375 20.1655 134.116 20.9187C134.869 21.6594 135.245 22.7767 135.245 24.2706V30.0705H132.308V24.7225C132.308 23.9191 132.138 23.3228 131.799 22.9336C131.473 22.5319 131.002 22.331 130.387 22.331C129.697 22.331 129.151 22.557 128.749 23.0089C128.347 23.4483 128.146 24.1074 128.146 24.9862V30.0705H125.209V24.7225C125.209 23.1282 124.568 22.331 123.288 22.331C122.61 22.331 122.07 22.557 121.668 23.0089C121.267 23.4483 121.066 24.1074 121.066 24.9862V30.0705H118.128V19.9395H120.934V21.107C121.311 20.6802 121.769 20.3538 122.309 20.1278C122.861 19.9018 123.464 19.7889 124.116 19.7889C124.832 19.7889 125.479 19.9332 126.056 20.222C126.634 20.4982 127.098 20.9062 127.45 21.446C127.864 20.9187 128.385 20.5107 129.012 20.222C129.653 19.9332 130.349 19.7889 131.103 19.7889Z" fill="#3A3A3C"/>
<path d="M141.965 19.7889C143.534 19.7889 144.739 20.1655 145.58 20.9187C146.421 21.6594 146.842 22.783 146.842 24.2894V30.0705H144.093V28.8088C143.54 29.7504 142.511 30.2212 141.004 30.2212C140.226 30.2212 139.548 30.0893 138.971 29.8257C138.406 29.5621 137.973 29.198 137.671 28.7335C137.37 28.269 137.219 27.7418 137.219 27.1517C137.219 26.2102 137.571 25.4695 138.274 24.9297C138.99 24.3899 140.088 24.12 141.569 24.12H143.904C143.904 23.4797 143.71 22.9901 143.321 22.6511C142.932 22.2996 142.348 22.1239 141.569 22.1239C141.03 22.1239 140.496 22.2118 139.969 22.3875C139.454 22.5507 139.015 22.7767 138.651 23.0654L137.596 21.0129C138.148 20.6237 138.808 20.3224 139.573 20.109C140.352 19.8956 141.149 19.7889 141.965 19.7889ZM141.739 28.2439C142.241 28.2439 142.687 28.1309 143.076 27.905C143.465 27.6664 143.741 27.3212 143.904 26.8693V25.8336H141.89C140.684 25.8336 140.082 26.229 140.082 27.0199C140.082 27.3965 140.226 27.6978 140.515 27.9238C140.816 28.1372 141.224 28.2439 141.739 28.2439Z" fill="#3A3A3C"/>
<path d="M155.658 19.7889C156.914 19.7889 157.924 20.1655 158.69 20.9187C159.469 21.6719 159.858 22.7892 159.858 24.2706V30.0705H156.92V24.7225C156.92 23.9191 156.744 23.3228 156.393 22.9336C156.041 22.5319 155.533 22.331 154.868 22.331C154.127 22.331 153.537 22.5633 153.097 23.0278C152.658 23.4797 152.438 24.1576 152.438 25.0615V30.0705H149.501V19.9395H152.307V21.1259C152.696 20.699 153.179 20.3726 153.756 20.1466C154.334 19.9081 154.968 19.7889 155.658 19.7889Z" fill="#3A3A3C"/>
<path d="M162.52 19.9395H165.458V30.0705H162.52V19.9395ZM163.989 18.5272C163.449 18.5272 163.01 18.3703 162.671 18.0564C162.332 17.7426 162.163 17.3534 162.163 16.8889C162.163 16.4244 162.332 16.0352 162.671 15.7214C163.01 15.4075 163.449 15.2506 163.989 15.2506C164.529 15.2506 164.968 15.4013 165.307 15.7026C165.646 16.0039 165.816 16.3805 165.816 16.8324C165.816 17.322 165.646 17.73 165.307 18.0564C164.968 18.3703 164.529 18.5272 163.989 18.5272Z" fill="#3A3A3C"/>
<path d="M172.271 19.7889C173.84 19.7889 175.045 20.1655 175.886 20.9187C176.727 21.6594 177.148 22.783 177.148 24.2894V30.0705H174.399V28.8088C173.846 29.7504 172.817 30.2212 171.31 30.2212C170.532 30.2212 169.854 30.0893 169.277 29.8257C168.712 29.5621 168.279 29.198 167.977 28.7335C167.676 28.269 167.525 27.7418 167.525 27.1517C167.525 26.2102 167.877 25.4695 168.58 24.9297C169.295 24.3899 170.394 24.12 171.875 24.12H174.21C174.21 23.4797 174.016 22.9901 173.627 22.6511C173.237 22.2996 172.654 22.1239 171.875 22.1239C171.335 22.1239 170.802 22.2118 170.275 22.3875C169.76 22.5507 169.321 22.7767 168.957 23.0654L167.902 21.0129C168.454 20.6237 169.113 20.3224 169.879 20.109C170.658 19.8956 171.455 19.7889 172.271 19.7889ZM172.045 28.2439C172.547 28.2439 172.993 28.1309 173.382 27.905C173.771 27.6664 174.047 27.3212 174.21 26.8693V25.8336H172.195C170.99 25.8336 170.388 26.229 170.388 27.0199C170.388 27.3965 170.532 27.6978 170.821 27.9238C171.122 28.1372 171.53 28.2439 172.045 28.2439Z" fill="#3A3A3C"/>
<circle cx="22.1848" cy="22.7359" r="21.7524" fill="#3A3A3C"/>
<path fill-rule="evenodd" clip-rule="evenodd" d="M33.4666 15.5073V12.7379C32.7312 13.4889 32.0663 14.1617 31.4013 14.8345C28.8744 17.3614 26.3475 19.8883 23.8206 22.4074C23.625 22.5951 23.5546 22.7047 23.805 22.9159C24.1114 23.1766 24.3906 23.4646 24.6699 23.7525L24.6699 23.7525L24.6699 23.7525C24.7257 23.8101 24.7816 23.8677 24.8376 23.9251C24.9941 24.0894 25.088 24.1128 25.2679 23.9329C27.9434 21.2417 30.6268 18.5584 33.3101 15.8828C33.4197 15.7733 33.4666 15.6638 33.4666 15.5073ZM33.4666 21.1087V18.2924C31.1119 20.6628 28.8275 22.955 26.5353 25.2394C26.371 25.3958 26.4101 25.4741 26.5509 25.6071C26.9265 25.9591 27.302 26.3268 27.6618 26.7023C27.8183 26.8666 27.8965 26.8588 28.053 26.7023C29.2211 25.529 30.3891 24.3627 31.5572 23.1964L31.5574 23.1961L31.5577 23.1959C32.1418 22.6126 32.726 22.0293 33.3102 21.4451C33.4119 21.3434 33.4666 21.2574 33.4666 21.1087ZM33.4666 23.9173V26.7414C33.4666 26.8596 33.4038 26.922 33.3375 26.9879L33.3258 26.9996C31.5499 28.7755 29.7662 30.5513 27.9904 32.3194C27.977 32.3327 27.9586 32.341 27.9322 32.3529L27.9322 32.3529C27.9123 32.3619 27.8877 32.3729 27.8574 32.3898V29.6438C27.8574 29.5179 27.9276 29.441 28.0015 29.3601L28.0138 29.3465C29.8132 27.555 31.6125 25.7635 33.4666 23.9173ZM31.9404 31.0346C31.3747 31.5901 30.8031 32.1513 30.2122 32.734H33.2554C33.3884 32.734 33.4744 32.7183 33.4744 32.5462V29.5265C32.9611 30.0323 32.4532 30.5311 31.9404 31.0346Z" fill="#009E7F"/>
<path d="M10.9365 13.0899C12.4464 14.5607 13.8859 15.9767 15.3253 17.3849C18.9084 20.8975 22.4992 24.4101 26.0822 27.9149C26.4656 28.2904 26.4734 28.2904 26.0744 28.6894C25.8162 28.9475 25.5424 29.19 25.3077 29.4717C25.1278 29.6829 25.0183 29.6985 24.807 29.4873C22.7183 27.4298 20.6216 25.3802 18.525 23.3305C16.0685 20.9288 13.6277 18.527 11.1712 16.1331C10.9991 15.961 10.9287 15.7967 10.9287 15.5621C10.9444 14.7719 10.9365 13.9739 10.9365 13.0899Z" fill="white"/>
<path d="M10.9358 18.6914C13.4705 21.1713 15.927 23.5809 18.3834 25.9826C20.042 27.602 21.7005 29.2292 23.3668 30.8408C23.6015 31.0676 23.6172 31.1928 23.3668 31.404C23.0304 31.6935 22.7253 32.0142 22.4202 32.3428C22.2637 32.5071 22.1855 32.5384 21.9978 32.3585C18.6181 29.0336 15.2464 25.6931 11.8198 22.4074C11.147 21.7502 10.795 21.1087 10.9201 20.1778C10.9827 19.7162 10.9358 19.2468 10.9358 18.6914Z" fill="white"/>
<path d="M10.9358 24.2849C12.3362 25.654 13.674 26.9605 15.0039 28.2748C15.5046 28.7676 15.9974 29.2683 16.4903 29.769C16.4903 30.6608 16.4903 31.5605 16.4903 32.5384C15.8879 31.9438 15.3403 31.404 14.7848 30.8564C13.5723 29.6673 12.3675 28.4782 11.1549 27.3047C11.0062 27.1561 10.928 27.0231 10.9358 26.804C10.9437 25.9904 10.9358 25.1846 10.9358 24.2849Z" fill="white"/>
<path d="M13.627 32.734C12.8838 32.734 11.9997 32.734 11.1235 32.734C10.9593 32.734 10.928 32.6557 10.9358 32.5228C10.9358 31.67 10.9358 30.8095 10.9358 29.8785C11.8824 30.8799 12.7742 31.8343 13.627 32.734Z" fill="white"/>
</svg>
